<svg xmlns="http://www.w3.org/2000/svg" viewBox="0 0 323 100"><defs><style>.cls-1{fill:#2e3192;}</style></defs><g id="Layer_2" data-name="Layer 2"><g id="Layer_1-2" data-name="Layer 1"><polygon points="87.38 35.76 98.44 35.76 101.66 24.94 78.05 24.94 60.39 84.97 83.58 84.97 87.71 73.58 76.24 73.58 80.36 59.62 91.18 59.62 94.31 48.97 83.5 48.97 87.38 35.76"/><polygon points="123.28 24.94 111.89 53.18 116.68 24.94 104.22 24.94 96.29 84.97 109.75 84.97 136.07 24.94 123.28 24.94"/><polygon points="141.44 59.62 152.25 59.62 155.38 48.97 144.57 48.97 148.45 35.76 159.51 35.76 162.73 24.94 139.13 24.94 121.46 84.97 144.66 84.97 148.78 73.58 137.31 73.58 141.44 59.62"/><polygon points="184.52 24.94 177.67 48.14 177.25 24.94 166.61 24.94 148.95 84.97 160.66 84.97 167.84 61.02 168.92 84.97 178.9 84.97 196.56 24.94 184.52 24.94"/><path d="M210.1,49,207,59.62h2.56L205,75h-4.21q-2.55,0-1.89-2.4l10.31-35a2.46,2.46,0,0,1,.87-1.48,3,3,0,0,1,1.53-.33h12.13l3.22-10.82H207.05a10.3,10.3,0,0,0-5,1.11q-2,1.13-3,4.5L186.33,73.82a11.13,11.13,0,0,0-.53,5.08,6.62,6.62,0,0,0,4.58,5.45,12.27,12.27,0,0,0,4,.62H202l-1.32,4.71,13.87-7L224.46,49Z"/><polygon points="237.83 59.62 248.64 59.62 251.78 48.97 240.97 48.97 244.84 35.76 255.9 35.76 259.12 24.94 235.52 24.94 217.86 84.97 241.05 84.97 245.18 73.58 233.7 73.58 237.83 59.62"/><path d="M282.73,58.3a3.62,3.62,0,0,0-2.4-1.82,5.15,5.15,0,0,0,5.28-3.55l6-20.39a6.26,6.26,0,0,0-.5-5.29c-.93-1.54-2.75-2.31-5.44-2.31H263L245.34,85H257.8l7.51-25.6h4.13c.77,0,1.22.22,1.36.66a2.28,2.28,0,0,1,0,1.41L263.83,85h12.46l6.44-21.88C283.39,60.94,283.39,59.35,282.73,58.3Zm-4.38-21.22-3.3,11.14a3,3,0,0,1-1.2,1.86,3.23,3.23,0,0,1-1.69.46h-4.29l4.7-15.94h3.88C278.21,34.6,278.85,35.43,278.35,37.08Z"/><path d="M307.61,36.13a2.43,2.43,0,0,1,1.28-.37h10.89L323,24.94H303.77a9.92,9.92,0,0,0-4.25.95q-2,.95-3.09,4.09l-6.86,23.28c-.6,2.2-.55,4,.17,5.29s2.39,2,5,2h6.61c.38,0,.6.07.66.2a.93.93,0,0,1-.09.62l-2.88,10.16a4.1,4.1,0,0,1-.91,1.61,3.61,3.61,0,0,1-2.23.46h-10.4L282.15,85h20.38a7.88,7.88,0,0,0,3.67-.91,4.18,4.18,0,0,0,2.27-2.72l6.85-23.29a10,10,0,0,0,.5-3.8,4.89,4.89,0,0,0-.95-2.56,4.7,4.7,0,0,0-2.1-1.48,8.41,8.41,0,0,0-3-.5h-6.69l3.55-12.22A2.36,2.36,0,0,1,307.61,36.13Z"/><polygon points="33.34 45.63 17.35 100 31.18 100 42.97 60.18 33.34 45.63"/><path d="M77.64,2.81Q75.91,0,71.2,0H46.75L34.42,41.94,52.18,28.79,57.09,12h4.38c2.09,0,2.83,1.11,2.22,3.31l-6.1,20.89a4.65,4.65,0,0,1-1.49,2.6,3.58,3.58,0,0,1-2.06.62H49.09L51.24,32,34.81,44.18l8.91,13.46L46,50.12h4.13a1.9,1.9,0,0,1,1.73.66,2.26,2.26,0,0,1,.08,1.82L42.32,85H56.18L65,55.16a12.32,12.32,0,0,0,.46-6.27A3.6,3.6,0,0,0,61.88,46a6.64,6.64,0,0,0,4.79-1.52A8,8,0,0,0,68.81,41L78.14,9.83C79,7,78.8,4.68,77.64,2.81Z"/><path d="M21.23,79.61A39.25,39.25,0,0,1,40.84,12.92L43.72,3.1A48.57,48.57,0,0,0,18.34,89.44Z"/><path d="M65.17,87a39.12,39.12,0,0,1-28.58,1.84L34,97.76A48.49,48.49,0,0,0,81.58,87Z"/><line class="cls-1" x1="45.89" y1="2.93" x2="45.52" y2="2.65"/></g></g></svg>