<?xml version="1.0" encoding="utf-8"?>
<!-- Generator: Adobe Illustrator 24.1.2, SVG Export Plug-In . SVG Version: 6.00 Build 0)  -->
<svg version="1.1" id="Layer_1" xmlns="http://www.w3.org/2000/svg" xmlns:xlink="http://www.w3.org/1999/xlink" x="0px" y="0px"
	 viewBox="0 0 323 100" style="enable-background:new 0 0 323 100;" xml:space="preserve">
<style type="text/css">
	.st0{fill:#D6E0E6;}
</style>
<g id="Layer_2_1_">
	<g id="Layer_1-2">
		<polygon class="st0" points="87.4,35.8 98.4,35.8 101.7,24.9 78.1,24.9 60.4,85 83.6,85 87.7,73.6 76.2,73.6 80.4,59.6 91.2,59.6 
			94.3,49 83.5,49 		"/>
		<polygon class="st0" points="123.3,24.9 111.9,53.2 116.7,24.9 104.2,24.9 96.3,85 109.8,85 136.1,24.9 		"/>
		<polygon class="st0" points="141.4,59.6 152.2,59.6 155.4,49 144.6,49 148.4,35.8 159.5,35.8 162.7,24.9 139.1,24.9 121.5,85 
			144.7,85 148.8,73.6 137.3,73.6 		"/>
		<polygon class="st0" points="184.5,24.9 177.7,48.1 177.2,24.9 166.6,24.9 148.9,85 160.7,85 167.8,61 168.9,85 178.9,85 
			196.6,24.9 		"/>
		<path class="st0" d="M210.1,49L207,59.6h2.6L205,75h-4.2c-1.7,0-2.3-0.8-1.9-2.4l10.3-35c0.1-0.6,0.4-1.1,0.9-1.5
			c0.5-0.2,1-0.4,1.5-0.3h12.1L227,25h-19.9c-1.7-0.1-3.5,0.3-5,1.1c-1.3,0.8-2.3,2.3-3,4.5l-12.7,43.2c-0.6,1.6-0.7,3.4-0.5,5.1
			c0.3,2.6,2.1,4.7,4.6,5.4c1.3,0.4,2.6,0.6,4,0.6h7.6l-1.3,4.7l13.9-7l9.9-33.7h-14.5V49z"/>
		<polygon class="st0" points="237.8,59.6 248.6,59.6 251.8,49 241,49 244.8,35.8 255.9,35.8 259.1,24.9 235.5,24.9 217.9,85 
			241.1,85 245.2,73.6 233.7,73.6 		"/>
		<path class="st0" d="M282.7,58.3c-0.5-0.9-1.4-1.6-2.4-1.8c2.4,0.2,4.5-1.3,5.3-3.5l6-20.4c0.6-1.8,0.4-3.7-0.5-5.3
			c-0.9-1.5-2.8-2.3-5.4-2.3H263l-17.7,60h12.5l7.5-25.6h4.1c0.8,0,1.2,0.2,1.4,0.7c0.1,0.5,0.1,1,0,1.4l-7,23.5h12.5l6.4-21.9
			C283.4,60.9,283.4,59.3,282.7,58.3z M278.4,37.1l-3.3,11.1c-0.1,0.8-0.6,1.4-1.2,1.9c-0.5,0.3-1.1,0.5-1.7,0.5h-4.3l4.7-15.9h3.9
			C278.2,34.6,278.9,35.4,278.4,37.1z"/>
		<path class="st0" d="M307.6,36.1c0.4-0.2,0.8-0.4,1.3-0.4h10.9l3.2-10.8h-19.2c-1.5,0-2.9,0.3-4.2,1c-1.3,0.6-2.4,2-3.1,4.1
			l-6.9,23.3c-0.6,2.2-0.5,4,0.2,5.3s2.4,2,5,2h6.6c0.4,0,0.6,0.1,0.7,0.2c0,0.2,0,0.4-0.1,0.6l-3,10.1c-0.2,0.6-0.5,1.1-0.9,1.6
			c-0.7,0.4-1.5,0.6-2.2,0.5h-10.4L282.1,85h20.4c1.3,0,2.5-0.3,3.7-0.9c1.1-0.5,2-1.5,2.3-2.7l6.9-23.3c0.4-1.2,0.6-2.5,0.5-3.8
			c-0.1-0.9-0.4-1.8-1-2.6c-0.5-0.7-1.3-1.2-2.1-1.5c-1-0.3-2-0.5-3-0.5h-6.7l3.5-12.2C306.8,37,307.1,36.5,307.6,36.1z"/>
		<polygon class="st0" points="33.3,45.6 17.4,100 31.2,100 43,60.2 		"/>
		<path class="st0" d="M77.6,2.8C76.5,0.9,74.3,0,71.2,0H46.8L34.4,41.9l17.8-13.1L57.1,12h4.4c2.1,0,2.8,1.1,2.2,3.3l-6.1,20.9
			c-0.2,1-0.7,1.9-1.5,2.6c-0.6,0.4-1.3,0.6-2.1,0.6h-5l2.2-7.4L34.8,44.2l8.9,13.5l2.3-7.5h4.1c0.7-0.1,1.3,0.2,1.7,0.7
			c0.3,0.6,0.3,1.2,0.1,1.8L42.3,85h13.9L65,55.2c0.7-2,0.9-4.2,0.5-6.3c-0.3-1.7-1.8-2.9-3.6-2.9c1.7,0.1,3.5-0.4,4.8-1.5
			c1-1,1.7-2.2,2.1-3.5l9.3-31.2C79,7,78.8,4.7,77.6,2.8z"/>
		<path class="st0" d="M21.2,79.6c-15.6-15.1-16-39.9-0.9-55.5c5.5-5.7,12.7-9.6,20.5-11.2l2.9-9.8C17,5.8-2.4,29.6,0.2,56.3
			c1.3,13,7.8,25,18.1,33.2L21.2,79.6z"/>
		<path class="st0" d="M65.2,87c-9,4.2-19.2,4.9-28.6,1.8l-2.6,9C50.6,103,68.8,98.9,81.6,87H65.2z"/>
		<line class="st0" x1="45.9" y1="2.9" x2="45.5" y2="2.7"/>
	</g>
</g>
</svg>
